<svg id="Capa_1" data-name="Capa 1" xmlns="http://www.w3.org/2000/svg" viewBox="0 0 112.2 112.2"><defs><style>.cls-1{fill:#55acee;}</style></defs><title>twitter_color</title><path class="cls-1" d="M56.1,0a56.1,56.1,0,1,0,56.1,56.1A56.1,56.1,0,0,0,56.1,0ZM83.77,47.26c0,0.57,0,1.15,0,1.73,0,17.72-13.49,38.15-38.15,38.15a37.93,37.93,0,0,1-20.55-6A27.07,27.07,0,0,0,45,75.57a13.42,13.42,0,0,1-12.53-9.31A13.46,13.46,0,0,0,38.48,66,13.42,13.42,0,0,1,27.73,52.87c0-.06,0-0.11,0-0.17a13.31,13.31,0,0,0,6.07,1.68,13.42,13.42,0,0,1-4.15-17.9,38.06,38.06,0,0,0,27.64,14A13.42,13.42,0,0,1,80.14,38.26,26.84,26.84,0,0,0,88.66,35a13.45,13.45,0,0,1-5.9,7.42,26.75,26.75,0,0,0,7.7-2.11A27.19,27.19,0,0,1,83.77,47.26Z" transform="translate(0 0)"/></svg>