<svg id="Capa_1" data-name="Capa 1" xmlns="http://www.w3.org/2000/svg" viewBox="0 0 97.75 97.75"><defs><style>.cls-1{fill:#d8362a;}</style></defs><title>youtube_color</title><path class="cls-1" d="M40,59.59L61.91,48.21,40,36.76V59.59Z" transform="translate(0 0)"/><path class="cls-1" d="M48.88,0A48.87,48.87,0,1,0,97.75,48.87,48.88,48.88,0,0,0,48.88,0Zm33.3,65.19A8.72,8.72,0,0,1,74.72,72a231.45,231.45,0,0,1-25.84,1A231.54,231.54,0,0,1,23,72a8.71,8.71,0,0,1-7.46-6.78c-1.2-5.23-1.2-10.93-1.2-16.31s0-11.09,1.22-16.31A8.72,8.72,0,0,1,23,25.78a231.78,231.78,0,0,1,25.85-1,231.68,231.68,0,0,1,25.84,1,8.72,8.72,0,0,1,7.46,6.78c1.2,5.23,1.19,10.93,1.19,16.31S83.38,60,82.18,65.19Z" transform="translate(0 0)"/></svg>